<svg viewBox="0 0 82 18" fill="none" xmlns="http://www.w3.org/2000/svg">
<path d="M3.92 6.88V12.544H2.768V8H0.736V6.88H3.92ZM3.92 12.064C4.672 13.248 6.08 13.792 7.984 13.856C9.76 13.936 13.456 13.888 15.392 13.76C15.248 14.032 15.056 14.592 15.008 14.944C13.2 15.024 9.776 15.056 7.984 14.976C5.872 14.896 4.416 14.336 3.424 13.072C2.72 13.76 1.984 14.448 1.184 15.152L0.56 13.984C1.264 13.472 2.128 12.752 2.88 12.064H3.92ZM0.88 1.632L1.792 0.976C2.784 1.696 3.904 2.8 4.4 3.584L3.408 4.336C2.96 3.536 1.856 2.416 0.88 1.632ZM11.056 0.719999L12.352 1.008C11.888 2.032 11.312 3.2 10.864 3.952L9.872 3.664C10.304 2.848 10.8 1.6 11.056 0.719999ZM7.248 3.072H14.768V4.112H7.248V11.728H6.08V3.984L6.976 3.072H7.248ZM6.704 5.792H14.368V6.8H6.704V5.792ZM6.704 8.48H14.336V9.504H6.704V8.48ZM6.08 11.248H15.04V12.288H6.08V11.248ZM10.048 3.552H11.2V11.648H10.048V3.552ZM7.488 0.608L8.672 0.943999C7.744 3.216 6.24 5.328 4.656 6.688C4.464 6.448 4.016 5.984 3.744 5.776C5.296 4.544 6.672 2.64 7.488 0.608ZM21.8594 16.3047C21.8594 16.4401 21.8073 16.5703 21.7031 16.6953C21.599 16.8255 21.4844 16.8906 21.3594 16.8906C20.9115 16.8906 20.6875 16.6927 20.6875 16.2969V4.53906C20.6875 4.3724 20.7448 4.23438 20.8594 4.125C20.974 4.01042 21.112 3.95312 21.2734 3.95312C21.4401 3.95312 21.5781 4.01042 21.6875 4.125C21.8021 4.23958 21.8594 4.38021 21.8594 4.54688V16.3047ZM27.5781 14.0234C27.4219 14.0234 27.2839 13.9688 27.1641 13.8594C27.0495 13.7448 26.9922 13.6094 26.9922 13.4531C26.9922 13.2969 27.0443 13.1615 27.1484 13.0469L31.7656 7.3125L27.4062 7.35156C27.3073 7.35156 27.2031 7.28906 27.0938 7.16406C26.9896 7.03906 26.9375 6.92708 26.9375 6.82812C26.9375 6.66146 26.987 6.51302 27.0859 6.38281C27.1849 6.2474 27.3307 6.17969 27.5234 6.17969L33.1719 6.13281C33.2865 6.14844 33.401 6.20573 33.5156 6.30469C33.6302 6.39844 33.6875 6.52083 33.6875 6.67188C33.6875 6.84896 33.6354 6.99479 33.5312 7.10938L28.9062 12.8516H33.2656C33.3802 12.8516 33.487 12.9167 33.5859 13.0469C33.6901 13.1771 33.7422 13.3073 33.7422 13.4375C33.7422 13.5677 33.6901 13.6979 33.5859 13.8281C33.487 13.9583 33.3802 14.0234 33.2656 14.0234H27.5781ZM38.9688 14.1562C38.2135 14.1562 37.5286 13.9688 36.9141 13.5938C36.3047 13.2188 35.8203 12.7188 35.4609 12.0938C35.1016 11.4635 34.9219 10.7734 34.9219 10.0234C34.9219 9.3099 35.0911 8.65104 35.4297 8.04688C35.7734 7.4375 36.237 6.94792 36.8203 6.57812C37.4036 6.20833 38.0547 6.02344 38.7734 6.02344C39.4349 6.02344 40.0417 6.1875 40.5938 6.51562C41.151 6.84375 41.5964 7.28646 41.9297 7.84375C42.2682 8.39583 42.4375 9.01042 42.4375 9.6875C42.4375 9.92708 42.3932 10.1328 42.3047 10.3047C42.2214 10.4766 42.0651 10.5625 41.8359 10.5625H36.1484C36.2318 10.9948 36.401 11.3958 36.6562 11.7656C36.9167 12.1302 37.2422 12.4245 37.6328 12.6484C38.0286 12.8724 38.4688 12.9844 38.9531 12.9844C39.3646 12.9844 39.7682 12.8932 40.1641 12.7109C40.5599 12.5286 40.8854 12.2786 41.1406 11.9609C41.2552 11.8099 41.4089 11.7344 41.6016 11.7344C41.763 11.7344 41.901 11.7917 42.0156 11.9062C42.1302 12.0208 42.1875 12.1589 42.1875 12.3203C42.1875 12.4609 42.1406 12.5885 42.0469 12.7031C41.6719 13.1615 41.2109 13.5182 40.6641 13.7734C40.1224 14.0286 39.5573 14.1562 38.9688 14.1562ZM41.2422 9.40625C41.1953 9 41.0573 8.63021 40.8281 8.29688C40.599 7.95833 40.3073 7.6901 39.9531 7.49219C39.599 7.29427 39.2083 7.19531 38.7812 7.19531C38.3385 7.19531 37.9349 7.29688 37.5703 7.5C37.2057 7.70312 36.901 7.97135 36.6562 8.30469C36.4167 8.63802 36.2526 9.00521 36.1641 9.40625H41.2422ZM44.7422 5.97656C44.9036 5.97656 45.0339 6.03385 45.1328 6.14844C45.237 6.26302 45.2891 6.40104 45.2891 6.5625L45.3281 7.49219C45.5156 7.26302 45.7318 7.03385 45.9766 6.80469C46.2266 6.57552 46.5104 6.38542 46.8281 6.23438C47.151 6.07812 47.5104 6 47.9062 6C48.599 6 49.1536 6.17708 49.5703 6.53125C49.9922 6.88542 50.2969 7.35156 50.4844 7.92969C50.6771 8.5026 50.7734 9.1224 50.7734 9.78906L50.7656 13.5781C50.7656 13.7396 50.7083 13.8776 50.5938 13.9922C50.4792 14.1068 50.3411 14.1641 50.1797 14.1641C50.0182 14.1641 49.8802 14.1068 49.7656 13.9922C49.651 13.8724 49.5938 13.7318 49.5938 13.5703L49.6016 9.78906C49.6016 9.32552 49.5547 8.89583 49.4609 8.5C49.3672 8.10417 49.1979 7.78385 48.9531 7.53906C48.7083 7.29427 48.3594 7.17188 47.9062 7.17188C47.0573 7.17188 46.4167 7.39844 45.9844 7.85156C45.5521 8.30469 45.3359 8.94271 45.3359 9.76562V13.5938C45.3359 13.7552 45.2786 13.8932 45.1641 14.0078C45.0495 14.1224 44.9115 14.1797 44.75 14.1797C44.5885 14.1797 44.4505 14.1198 44.3359 14C44.2214 13.8854 44.1641 13.7474 44.1641 13.5859L44.1562 6.57031C44.1562 6.40365 44.2109 6.26302 44.3203 6.14844C44.4349 6.03385 44.5755 5.97656 44.7422 5.97656ZM56.3594 5.95312C57.0573 5.95312 57.6927 6.10417 58.2656 6.40625C58.8438 6.70833 59.2708 7.11979 59.5469 7.64062C59.5938 7.72396 59.6172 7.8151 59.6172 7.91406C59.6172 8.07031 59.5599 8.20312 59.4453 8.3125C59.3359 8.42188 59.2031 8.47656 59.0469 8.47656C58.9531 8.47656 58.8568 8.44792 58.7578 8.39062C58.6589 8.32812 58.5885 8.25521 58.5469 8.17188C58.3594 7.81771 58.0729 7.54948 57.6875 7.36719C57.3073 7.17969 56.862 7.08594 56.3516 7.08594C56.0286 7.08594 55.6771 7.13021 55.2969 7.21875C54.9167 7.30208 54.5885 7.44271 54.3125 7.64062C54.0417 7.83333 53.9062 8.09375 53.9062 8.42188C53.9062 8.67708 54.0156 8.875 54.2344 9.01562C54.4531 9.15625 54.724 9.26042 55.0469 9.32812C55.375 9.39062 55.7057 9.4349 56.0391 9.46094C56.3776 9.48698 56.6667 9.51302 56.9062 9.53906C57.3802 9.58594 57.8464 9.67188 58.3047 9.79688C58.763 9.92188 59.1432 10.1276 59.4453 10.4141C59.7474 10.7005 59.8984 11.1146 59.8984 11.6562C59.8984 12.2396 59.7266 12.7188 59.3828 13.0938C59.0391 13.4635 58.599 13.737 58.0625 13.9141C57.526 14.0859 56.9688 14.1719 56.3906 14.1719C55.5781 14.1719 54.8411 14.0156 54.1797 13.7031C53.5182 13.3854 53.0312 12.9219 52.7188 12.3125C52.6771 12.2396 52.6562 12.151 52.6562 12.0469C52.6562 11.8906 52.7109 11.7578 52.8203 11.6484C52.9297 11.5391 53.0625 11.4844 53.2188 11.4844C53.3177 11.4844 53.4167 11.5156 53.5156 11.5781C53.6146 11.6354 53.6849 11.7083 53.7266 11.7969C53.9505 12.224 54.2943 12.5391 54.7578 12.7422C55.2214 12.9401 55.7656 13.0391 56.3906 13.0391C56.75 13.0391 57.112 12.9974 57.4766 12.9141C57.8464 12.8255 58.1536 12.6797 58.3984 12.4766C58.6484 12.2734 58.7734 12 58.7734 11.6562C58.7734 11.3854 58.6615 11.1797 58.4375 11.0391C58.2135 10.8932 57.9323 10.7891 57.5938 10.7266C57.2552 10.6641 56.9115 10.6224 56.5625 10.6016C56.2188 10.5807 55.9219 10.5547 55.6719 10.5234C55.2292 10.4714 54.7839 10.3828 54.3359 10.2578C53.8932 10.1276 53.5234 9.91927 53.2266 9.63281C52.9297 9.34635 52.7812 8.94271 52.7812 8.42188C52.7812 7.98438 52.888 7.61198 53.1016 7.30469C53.3203 6.99219 53.6042 6.73698 53.9531 6.53906C54.3073 6.33594 54.6953 6.1875 55.1172 6.09375C55.5391 6 55.9531 5.95312 56.3594 5.95312ZM61.7812 3.78125C61.7812 3.61979 61.8385 3.48177 61.9531 3.36719C62.0677 3.2526 62.2057 3.19531 62.3672 3.19531C62.5286 3.19531 62.6667 3.2526 62.7812 3.36719C62.8958 3.48177 62.9531 3.61979 62.9531 3.78125V7.375C63.2135 6.94271 63.5547 6.60417 63.9766 6.35938C64.3984 6.10938 64.8177 5.98438 65.2344 5.98438C66.3958 5.98438 67.2188 6.33333 67.7031 7.03125C68.1927 7.72396 68.4375 8.65625 68.4375 9.82812V9.89844L68.4297 13.5859V13.5938C68.4297 13.7552 68.3724 13.8932 68.2578 14.0078C68.1432 14.1224 68.0052 14.1797 67.8438 14.1797C67.6823 14.1797 67.5443 14.1224 67.4297 14.0078C67.3151 13.8932 67.2578 13.7552 67.2578 13.5938V13.5859L67.2656 9.88281C67.2656 9.02865 67.1328 8.35938 66.8672 7.875C66.6068 7.39062 66.0938 7.14844 65.3281 7.14844C64.8438 7.14844 64.4245 7.25 64.0703 7.45312C63.7161 7.65625 63.4427 7.91406 63.25 8.22656C63.0625 8.53906 62.9688 8.85677 62.9688 9.17969V13.6016C62.9688 13.763 62.9115 13.901 62.7969 14.0156C62.6823 14.1302 62.5443 14.1875 62.3828 14.1875C62.2109 14.1875 62.0677 14.1276 61.9531 14.0078C61.8385 13.888 61.7812 13.7526 61.7812 13.6016V3.78125ZM71 4.80469C70.776 4.80469 70.5781 4.72396 70.4062 4.5625C70.2396 4.40104 70.1562 4.20573 70.1562 3.97656C70.1562 3.7474 70.2396 3.55208 70.4062 3.39062C70.5781 3.22917 70.776 3.14844 71 3.14844C71.2292 3.14844 71.4271 3.22917 71.5938 3.39062C71.7604 3.55208 71.8438 3.7474 71.8438 3.97656C71.8438 4.20573 71.7604 4.40104 71.5938 4.5625C71.4271 4.72396 71.2292 4.80469 71 4.80469ZM70.4297 6.5C70.4297 6.36458 70.4922 6.2474 70.6172 6.14844C70.7422 6.04427 70.8594 5.99219 70.9688 5.99219C71.151 5.99219 71.3021 6.04688 71.4219 6.15625C71.5417 6.26562 71.6016 6.40885 71.6016 6.58594L71.6172 13.5938C71.6172 13.7552 71.5599 13.8932 71.4453 14.0078C71.3307 14.1224 71.1927 14.1797 71.0312 14.1797C70.8698 14.1797 70.7318 14.1198 70.6172 14C70.5026 13.8854 70.4453 13.7474 70.4453 13.5859L70.4297 6.5ZM74.3047 5.97656C74.4661 5.97656 74.5964 6.03385 74.6953 6.14844C74.7995 6.26302 74.8516 6.40104 74.8516 6.5625L74.8906 7.49219C75.0781 7.26302 75.2943 7.03385 75.5391 6.80469C75.7891 6.57552 76.0729 6.38542 76.3906 6.23438C76.7135 6.07812 77.0729 6 77.4688 6C78.1615 6 78.7161 6.17708 79.1328 6.53125C79.5547 6.88542 79.8594 7.35156 80.0469 7.92969C80.2396 8.5026 80.3359 9.1224 80.3359 9.78906L80.3281 13.5781C80.3281 13.7396 80.2708 13.8776 80.1562 13.9922C80.0417 14.1068 79.9036 14.1641 79.7422 14.1641C79.5807 14.1641 79.4427 14.1068 79.3281 13.9922C79.2135 13.8724 79.1562 13.7318 79.1562 13.5703L79.1641 9.78906C79.1641 9.32552 79.1172 8.89583 79.0234 8.5C78.9297 8.10417 78.7604 7.78385 78.5156 7.53906C78.2708 7.29427 77.9219 7.17188 77.4688 7.17188C76.6198 7.17188 75.9792 7.39844 75.5469 7.85156C75.1146 8.30469 74.8984 8.94271 74.8984 9.76562V13.5938C74.8984 13.7552 74.8411 13.8932 74.7266 14.0078C74.612 14.1224 74.474 14.1797 74.3125 14.1797C74.151 14.1797 74.013 14.1198 73.8984 14C73.7839 13.8854 73.7266 13.7474 73.7266 13.5859L73.7188 6.57031C73.7188 6.40365 73.7734 6.26302 73.8828 6.14844C73.9974 6.03385 74.138 5.97656 74.3047 5.97656Z" fill="black"/>
</svg>
